<mxfile host="app.diagrams.net" modified="2024-06-15T16:44:13.750Z" agent="Mozilla/5.0 (X11; Linux x86_64) AppleWebKit/537.36 (KHTML, like Gecko) Chrome/126.0.0.0 Safari/537.36" etag="3TsCs6gUVYXyzUPPgiXm" version="24.5.3" type="device" pages="2">
  <diagram name="Page-1" id="YVh38uIYrUlYecIb5zDG">
    <mxGraphModel dx="1167" dy="698" grid="1" gridSize="10" guides="1" tooltips="1" connect="1" arrows="1" fold="1" page="1" pageScale="1" pageWidth="827" pageHeight="1169" math="0" shadow="0">
      <root>
        <mxCell id="0" />
        <mxCell id="1" parent="0" />
        <mxCell id="9JQ-oSehkJLiL0MU-EjE-2" value="" style="endArrow=classic;html=1;rounded=0;" edge="1" parent="1">
          <mxGeometry width="50" height="50" relative="1" as="geometry">
            <mxPoint x="80" y="235" as="sourcePoint" />
            <mxPoint x="700" y="235" as="targetPoint" />
          </mxGeometry>
        </mxCell>
        <mxCell id="9JQ-oSehkJLiL0MU-EjE-3" value="&lt;font style=&quot;font-size: 20px;&quot;&gt;time&lt;/font&gt;" style="text;html=1;align=center;verticalAlign=middle;whiteSpace=wrap;rounded=0;" vertex="1" parent="1">
          <mxGeometry x="660" y="245" width="60" height="30" as="geometry" />
        </mxCell>
        <mxCell id="9JQ-oSehkJLiL0MU-EjE-4" value="" style="shape=sumEllipse;perimeter=ellipsePerimeter;whiteSpace=wrap;html=1;backgroundOutline=1;" vertex="1" parent="1">
          <mxGeometry x="170" y="72.5" width="20" height="20" as="geometry" />
        </mxCell>
        <mxCell id="9JQ-oSehkJLiL0MU-EjE-5" value="" style="shape=sumEllipse;perimeter=ellipsePerimeter;whiteSpace=wrap;html=1;backgroundOutline=1;" vertex="1" parent="1">
          <mxGeometry x="170" y="155" width="20" height="20" as="geometry" />
        </mxCell>
        <mxCell id="9JQ-oSehkJLiL0MU-EjE-7" value="&lt;font style=&quot;font-size: 20px;&quot;&gt;client1&lt;/font&gt;" style="text;html=1;align=center;verticalAlign=middle;whiteSpace=wrap;rounded=0;" vertex="1" parent="1">
          <mxGeometry x="80" y="70" width="80" height="30" as="geometry" />
        </mxCell>
        <mxCell id="9JQ-oSehkJLiL0MU-EjE-8" value="&lt;font style=&quot;font-size: 20px;&quot;&gt;client2&lt;/font&gt;" style="text;html=1;align=center;verticalAlign=middle;whiteSpace=wrap;rounded=0;" vertex="1" parent="1">
          <mxGeometry x="80" y="150" width="80" height="30" as="geometry" />
        </mxCell>
        <mxCell id="9JQ-oSehkJLiL0MU-EjE-9" value="&lt;span style=&quot;font-size: 20px;&quot;&gt;Put X &quot;1&quot;&lt;/span&gt;" style="rounded=1;whiteSpace=wrap;html=1;fillColor=none;" vertex="1" parent="1">
          <mxGeometry x="230" y="70" width="90" height="25" as="geometry" />
        </mxCell>
        <mxCell id="9JQ-oSehkJLiL0MU-EjE-10" value="&lt;span style=&quot;font-size: 20px;&quot;&gt;&amp;nbsp;Get X &quot;1&quot;&lt;/span&gt;" style="rounded=1;whiteSpace=wrap;html=1;fillColor=none;" vertex="1" parent="1">
          <mxGeometry x="410" y="150" width="260" height="25" as="geometry" />
        </mxCell>
        <mxCell id="9JQ-oSehkJLiL0MU-EjE-11" value="&lt;span style=&quot;font-size: 20px;&quot;&gt;Append X &quot;234&quot;&lt;/span&gt;" style="rounded=1;whiteSpace=wrap;html=1;fillColor=none;" vertex="1" parent="1">
          <mxGeometry x="370" y="70" width="240" height="25" as="geometry" />
        </mxCell>
        <mxCell id="9JQ-oSehkJLiL0MU-EjE-15" value="" style="endArrow=none;dashed=1;html=1;rounded=0;exitX=0;exitY=1;exitDx=0;exitDy=0;" edge="1" parent="1" source="9JQ-oSehkJLiL0MU-EjE-9">
          <mxGeometry width="50" height="50" relative="1" as="geometry">
            <mxPoint x="440" y="285" as="sourcePoint" />
            <mxPoint x="230" y="235" as="targetPoint" />
          </mxGeometry>
        </mxCell>
        <mxCell id="9JQ-oSehkJLiL0MU-EjE-17" value="" style="endArrow=none;dashed=1;html=1;rounded=0;exitX=1;exitY=1;exitDx=0;exitDy=0;" edge="1" parent="1" source="9JQ-oSehkJLiL0MU-EjE-9">
          <mxGeometry width="50" height="50" relative="1" as="geometry">
            <mxPoint x="440" y="285" as="sourcePoint" />
            <mxPoint x="320" y="235" as="targetPoint" />
          </mxGeometry>
        </mxCell>
        <mxCell id="9JQ-oSehkJLiL0MU-EjE-18" value="" style="endArrow=none;html=1;rounded=0;" edge="1" parent="1">
          <mxGeometry width="50" height="50" relative="1" as="geometry">
            <mxPoint x="230" y="95" as="sourcePoint" />
            <mxPoint x="280" y="235" as="targetPoint" />
          </mxGeometry>
        </mxCell>
        <mxCell id="9JQ-oSehkJLiL0MU-EjE-19" value="" style="endArrow=none;html=1;rounded=0;" edge="1" parent="1">
          <mxGeometry width="50" height="50" relative="1" as="geometry">
            <mxPoint x="320" y="95" as="sourcePoint" />
            <mxPoint x="280" y="235" as="targetPoint" />
          </mxGeometry>
        </mxCell>
        <mxCell id="9JQ-oSehkJLiL0MU-EjE-20" value="&lt;font style=&quot;font-size: 20px;&quot;&gt;Lp1&lt;/font&gt;" style="text;html=1;align=center;verticalAlign=middle;whiteSpace=wrap;rounded=0;" vertex="1" parent="1">
          <mxGeometry x="250" y="245" width="60" height="30" as="geometry" />
        </mxCell>
        <mxCell id="9JQ-oSehkJLiL0MU-EjE-21" value="" style="endArrow=none;dashed=1;html=1;rounded=0;exitX=0;exitY=1;exitDx=0;exitDy=0;" edge="1" parent="1" source="9JQ-oSehkJLiL0MU-EjE-11">
          <mxGeometry width="50" height="50" relative="1" as="geometry">
            <mxPoint x="440" y="285" as="sourcePoint" />
            <mxPoint x="370" y="235" as="targetPoint" />
          </mxGeometry>
        </mxCell>
        <mxCell id="9JQ-oSehkJLiL0MU-EjE-22" value="" style="endArrow=none;dashed=1;html=1;rounded=0;entryX=1;entryY=1;entryDx=0;entryDy=0;" edge="1" parent="1" target="9JQ-oSehkJLiL0MU-EjE-11">
          <mxGeometry width="50" height="50" relative="1" as="geometry">
            <mxPoint x="610" y="235" as="sourcePoint" />
            <mxPoint x="490" y="235" as="targetPoint" />
          </mxGeometry>
        </mxCell>
        <mxCell id="9JQ-oSehkJLiL0MU-EjE-23" value="" style="endArrow=none;dashed=1;html=1;rounded=0;exitX=0;exitY=1;exitDx=0;exitDy=0;" edge="1" parent="1" source="9JQ-oSehkJLiL0MU-EjE-10">
          <mxGeometry width="50" height="50" relative="1" as="geometry">
            <mxPoint x="440" y="285" as="sourcePoint" />
            <mxPoint x="410" y="235" as="targetPoint" />
          </mxGeometry>
        </mxCell>
        <mxCell id="9JQ-oSehkJLiL0MU-EjE-24" value="" style="endArrow=none;dashed=1;html=1;rounded=0;entryX=1;entryY=1;entryDx=0;entryDy=0;" edge="1" parent="1" target="9JQ-oSehkJLiL0MU-EjE-10">
          <mxGeometry width="50" height="50" relative="1" as="geometry">
            <mxPoint x="670" y="235" as="sourcePoint" />
            <mxPoint x="490" y="235" as="targetPoint" />
          </mxGeometry>
        </mxCell>
        <mxCell id="9JQ-oSehkJLiL0MU-EjE-25" value="" style="endArrow=none;html=1;rounded=0;exitX=0;exitY=1;exitDx=0;exitDy=0;" edge="1" parent="1" source="9JQ-oSehkJLiL0MU-EjE-11">
          <mxGeometry width="50" height="50" relative="1" as="geometry">
            <mxPoint x="440" y="285" as="sourcePoint" />
            <mxPoint x="550" y="235" as="targetPoint" />
          </mxGeometry>
        </mxCell>
        <mxCell id="9JQ-oSehkJLiL0MU-EjE-26" value="" style="endArrow=none;html=1;rounded=0;exitX=1;exitY=1;exitDx=0;exitDy=0;" edge="1" parent="1" source="9JQ-oSehkJLiL0MU-EjE-11">
          <mxGeometry width="50" height="50" relative="1" as="geometry">
            <mxPoint x="440" y="285" as="sourcePoint" />
            <mxPoint x="550" y="235" as="targetPoint" />
          </mxGeometry>
        </mxCell>
        <mxCell id="9JQ-oSehkJLiL0MU-EjE-27" value="" style="endArrow=none;html=1;rounded=0;" edge="1" parent="1">
          <mxGeometry width="50" height="50" relative="1" as="geometry">
            <mxPoint x="410" y="175" as="sourcePoint" />
            <mxPoint x="470" y="235" as="targetPoint" />
          </mxGeometry>
        </mxCell>
        <mxCell id="9JQ-oSehkJLiL0MU-EjE-28" value="" style="endArrow=none;html=1;rounded=0;" edge="1" parent="1">
          <mxGeometry width="50" height="50" relative="1" as="geometry">
            <mxPoint x="470" y="235" as="sourcePoint" />
            <mxPoint x="670" y="175" as="targetPoint" />
          </mxGeometry>
        </mxCell>
        <mxCell id="9JQ-oSehkJLiL0MU-EjE-29" value="&lt;font style=&quot;font-size: 20px;&quot;&gt;Lp2&lt;/font&gt;" style="text;html=1;align=center;verticalAlign=middle;whiteSpace=wrap;rounded=0;" vertex="1" parent="1">
          <mxGeometry x="440" y="245" width="60" height="30" as="geometry" />
        </mxCell>
        <mxCell id="9JQ-oSehkJLiL0MU-EjE-30" value="&lt;font style=&quot;font-size: 20px;&quot;&gt;Lp3&lt;/font&gt;" style="text;html=1;align=center;verticalAlign=middle;whiteSpace=wrap;rounded=0;" vertex="1" parent="1">
          <mxGeometry x="520" y="245" width="60" height="30" as="geometry" />
        </mxCell>
        <mxCell id="9JQ-oSehkJLiL0MU-EjE-55" value="" style="endArrow=classic;html=1;rounded=0;" edge="1" parent="1">
          <mxGeometry width="50" height="50" relative="1" as="geometry">
            <mxPoint x="80" y="560" as="sourcePoint" />
            <mxPoint x="700" y="560" as="targetPoint" />
          </mxGeometry>
        </mxCell>
        <mxCell id="9JQ-oSehkJLiL0MU-EjE-56" value="&lt;font style=&quot;font-size: 20px;&quot;&gt;time&lt;/font&gt;" style="text;html=1;align=center;verticalAlign=middle;whiteSpace=wrap;rounded=0;" vertex="1" parent="1">
          <mxGeometry x="660" y="575" width="60" height="30" as="geometry" />
        </mxCell>
        <mxCell id="9JQ-oSehkJLiL0MU-EjE-57" value="" style="shape=sumEllipse;perimeter=ellipsePerimeter;whiteSpace=wrap;html=1;backgroundOutline=1;" vertex="1" parent="1">
          <mxGeometry x="170" y="402.5" width="20" height="20" as="geometry" />
        </mxCell>
        <mxCell id="9JQ-oSehkJLiL0MU-EjE-58" value="" style="shape=sumEllipse;perimeter=ellipsePerimeter;whiteSpace=wrap;html=1;backgroundOutline=1;direction=south;" vertex="1" parent="1">
          <mxGeometry x="170" y="482.5" width="20" height="20" as="geometry" />
        </mxCell>
        <mxCell id="9JQ-oSehkJLiL0MU-EjE-59" value="&lt;font style=&quot;font-size: 20px;&quot;&gt;client1&lt;/font&gt;" style="text;html=1;align=center;verticalAlign=middle;whiteSpace=wrap;rounded=0;" vertex="1" parent="1">
          <mxGeometry x="80" y="400" width="80" height="30" as="geometry" />
        </mxCell>
        <mxCell id="9JQ-oSehkJLiL0MU-EjE-60" value="&lt;font style=&quot;font-size: 20px;&quot;&gt;client2&lt;/font&gt;" style="text;html=1;align=center;verticalAlign=middle;whiteSpace=wrap;rounded=0;" vertex="1" parent="1">
          <mxGeometry x="80" y="480" width="80" height="30" as="geometry" />
        </mxCell>
        <mxCell id="9JQ-oSehkJLiL0MU-EjE-61" value="&lt;span style=&quot;font-size: 20px;&quot;&gt;Put X &quot;1&quot;&lt;/span&gt;" style="rounded=1;whiteSpace=wrap;html=1;fillColor=none;" vertex="1" parent="1">
          <mxGeometry x="230" y="400" width="90" height="25" as="geometry" />
        </mxCell>
        <mxCell id="9JQ-oSehkJLiL0MU-EjE-62" value="&lt;span style=&quot;font-size: 20px;&quot;&gt;&amp;nbsp;Get X &quot;1&quot;&lt;/span&gt;" style="rounded=1;whiteSpace=wrap;html=1;fillColor=none;" vertex="1" parent="1">
          <mxGeometry x="410" y="480" width="260" height="25" as="geometry" />
        </mxCell>
        <mxCell id="9JQ-oSehkJLiL0MU-EjE-63" value="&lt;span style=&quot;font-size: 20px;&quot;&gt;Append X &quot;234&quot;&lt;/span&gt;" style="rounded=1;whiteSpace=wrap;html=1;fillColor=none;" vertex="1" parent="1">
          <mxGeometry x="370" y="400" width="240" height="25" as="geometry" />
        </mxCell>
        <mxCell id="9JQ-oSehkJLiL0MU-EjE-64" value="" style="endArrow=none;dashed=1;html=1;rounded=0;exitX=0;exitY=1;exitDx=0;exitDy=0;" edge="1" parent="1" source="9JQ-oSehkJLiL0MU-EjE-61">
          <mxGeometry width="50" height="50" relative="1" as="geometry">
            <mxPoint x="440" y="615" as="sourcePoint" />
            <mxPoint x="230" y="560" as="targetPoint" />
          </mxGeometry>
        </mxCell>
        <mxCell id="9JQ-oSehkJLiL0MU-EjE-65" value="" style="endArrow=none;dashed=1;html=1;rounded=0;exitX=1;exitY=1;exitDx=0;exitDy=0;" edge="1" parent="1" source="9JQ-oSehkJLiL0MU-EjE-61">
          <mxGeometry width="50" height="50" relative="1" as="geometry">
            <mxPoint x="440" y="615" as="sourcePoint" />
            <mxPoint x="320" y="560" as="targetPoint" />
          </mxGeometry>
        </mxCell>
        <mxCell id="9JQ-oSehkJLiL0MU-EjE-66" value="" style="endArrow=none;html=1;rounded=0;" edge="1" parent="1">
          <mxGeometry width="50" height="50" relative="1" as="geometry">
            <mxPoint x="230" y="425" as="sourcePoint" />
            <mxPoint x="280" y="560" as="targetPoint" />
          </mxGeometry>
        </mxCell>
        <mxCell id="9JQ-oSehkJLiL0MU-EjE-67" value="" style="endArrow=none;html=1;rounded=0;" edge="1" parent="1">
          <mxGeometry width="50" height="50" relative="1" as="geometry">
            <mxPoint x="320" y="425" as="sourcePoint" />
            <mxPoint x="280" y="560" as="targetPoint" />
          </mxGeometry>
        </mxCell>
        <mxCell id="9JQ-oSehkJLiL0MU-EjE-68" value="&lt;font style=&quot;font-size: 20px;&quot;&gt;Lp1&lt;/font&gt;" style="text;html=1;align=center;verticalAlign=middle;whiteSpace=wrap;rounded=0;" vertex="1" parent="1">
          <mxGeometry x="250" y="575" width="60" height="30" as="geometry" />
        </mxCell>
        <mxCell id="9JQ-oSehkJLiL0MU-EjE-69" value="" style="endArrow=none;dashed=1;html=1;rounded=0;exitX=0;exitY=1;exitDx=0;exitDy=0;" edge="1" parent="1" source="9JQ-oSehkJLiL0MU-EjE-63">
          <mxGeometry width="50" height="50" relative="1" as="geometry">
            <mxPoint x="440" y="615" as="sourcePoint" />
            <mxPoint x="370" y="560" as="targetPoint" />
          </mxGeometry>
        </mxCell>
        <mxCell id="9JQ-oSehkJLiL0MU-EjE-70" value="" style="endArrow=none;dashed=1;html=1;rounded=0;entryX=1;entryY=1;entryDx=0;entryDy=0;" edge="1" parent="1" target="9JQ-oSehkJLiL0MU-EjE-63">
          <mxGeometry width="50" height="50" relative="1" as="geometry">
            <mxPoint x="610" y="560" as="sourcePoint" />
            <mxPoint x="490" y="565" as="targetPoint" />
          </mxGeometry>
        </mxCell>
        <mxCell id="9JQ-oSehkJLiL0MU-EjE-71" value="" style="endArrow=none;dashed=1;html=1;rounded=0;exitX=0;exitY=1;exitDx=0;exitDy=0;" edge="1" parent="1" source="9JQ-oSehkJLiL0MU-EjE-62">
          <mxGeometry width="50" height="50" relative="1" as="geometry">
            <mxPoint x="440" y="615" as="sourcePoint" />
            <mxPoint x="410" y="560" as="targetPoint" />
          </mxGeometry>
        </mxCell>
        <mxCell id="9JQ-oSehkJLiL0MU-EjE-72" value="" style="endArrow=none;dashed=1;html=1;rounded=0;entryX=1;entryY=1;entryDx=0;entryDy=0;" edge="1" parent="1" target="9JQ-oSehkJLiL0MU-EjE-62">
          <mxGeometry width="50" height="50" relative="1" as="geometry">
            <mxPoint x="670" y="560" as="sourcePoint" />
            <mxPoint x="490" y="565" as="targetPoint" />
          </mxGeometry>
        </mxCell>
        <mxCell id="9JQ-oSehkJLiL0MU-EjE-75" value="" style="endArrow=none;html=1;rounded=0;" edge="1" parent="1">
          <mxGeometry width="50" height="50" relative="1" as="geometry">
            <mxPoint x="410" y="505" as="sourcePoint" />
            <mxPoint x="580" y="560" as="targetPoint" />
          </mxGeometry>
        </mxCell>
        <mxCell id="9JQ-oSehkJLiL0MU-EjE-76" value="" style="endArrow=none;html=1;rounded=0;" edge="1" parent="1">
          <mxGeometry width="50" height="50" relative="1" as="geometry">
            <mxPoint x="580" y="560" as="sourcePoint" />
            <mxPoint x="670" y="505" as="targetPoint" />
          </mxGeometry>
        </mxCell>
        <mxCell id="9JQ-oSehkJLiL0MU-EjE-77" value="&lt;font style=&quot;font-size: 20px;&quot;&gt;Lp2&lt;/font&gt;" style="text;html=1;align=center;verticalAlign=middle;whiteSpace=wrap;rounded=0;" vertex="1" parent="1">
          <mxGeometry x="400" y="575" width="60" height="30" as="geometry" />
        </mxCell>
        <mxCell id="9JQ-oSehkJLiL0MU-EjE-78" value="&lt;font style=&quot;font-size: 20px;&quot;&gt;Lp3&lt;/font&gt;" style="text;html=1;align=center;verticalAlign=middle;whiteSpace=wrap;rounded=0;" vertex="1" parent="1">
          <mxGeometry x="550" y="575" width="60" height="30" as="geometry" />
        </mxCell>
        <mxCell id="9JQ-oSehkJLiL0MU-EjE-81" value="" style="endArrow=none;html=1;rounded=0;exitX=0;exitY=1;exitDx=0;exitDy=0;" edge="1" parent="1" source="9JQ-oSehkJLiL0MU-EjE-63">
          <mxGeometry width="50" height="50" relative="1" as="geometry">
            <mxPoint x="440" y="470" as="sourcePoint" />
            <mxPoint x="420" y="560" as="targetPoint" />
          </mxGeometry>
        </mxCell>
        <mxCell id="9JQ-oSehkJLiL0MU-EjE-82" value="" style="endArrow=none;html=1;rounded=0;exitX=1;exitY=1;exitDx=0;exitDy=0;" edge="1" parent="1" source="9JQ-oSehkJLiL0MU-EjE-63">
          <mxGeometry width="50" height="50" relative="1" as="geometry">
            <mxPoint x="620" y="520" as="sourcePoint" />
            <mxPoint x="420" y="560" as="targetPoint" />
          </mxGeometry>
        </mxCell>
        <mxCell id="9JQ-oSehkJLiL0MU-EjE-83" value="&lt;font style=&quot;font-size: 25px;&quot;&gt;（1）&lt;/font&gt;" style="text;html=1;align=center;verticalAlign=middle;whiteSpace=wrap;rounded=0;" vertex="1" parent="1">
          <mxGeometry x="340" y="290" width="60" height="30" as="geometry" />
        </mxCell>
        <mxCell id="9JQ-oSehkJLiL0MU-EjE-84" value="&lt;font style=&quot;font-size: 25px;&quot;&gt;（2）&lt;/font&gt;" style="text;html=1;align=center;verticalAlign=middle;whiteSpace=wrap;rounded=0;" vertex="1" parent="1">
          <mxGeometry x="340" y="620" width="60" height="30" as="geometry" />
        </mxCell>
      </root>
    </mxGraphModel>
  </diagram>
  <diagram id="MJZFhR5xuvD1u-LfKLxU" name="Page-2">
    <mxGraphModel dx="992" dy="593" grid="1" gridSize="10" guides="1" tooltips="1" connect="1" arrows="1" fold="1" page="1" pageScale="1" pageWidth="827" pageHeight="1169" math="0" shadow="0">
      <root>
        <mxCell id="0" />
        <mxCell id="1" parent="0" />
        <mxCell id="08xz31lv5Cnja65_5nKp-1" value="" style="endArrow=classic;html=1;rounded=0;" edge="1" parent="1">
          <mxGeometry width="50" height="50" relative="1" as="geometry">
            <mxPoint x="80" y="320" as="sourcePoint" />
            <mxPoint x="760" y="320" as="targetPoint" />
          </mxGeometry>
        </mxCell>
        <mxCell id="yosqzPpUmF-Rqvi0anPo-1" value="&lt;span style=&quot;font-size: 20px;&quot;&gt;Put X &quot;1&quot;&lt;/span&gt;" style="rounded=1;whiteSpace=wrap;html=1;fillColor=none;" vertex="1" parent="1">
          <mxGeometry x="150" y="160" width="90" height="25" as="geometry" />
        </mxCell>
        <mxCell id="yosqzPpUmF-Rqvi0anPo-3" value="&lt;span style=&quot;font-size: 20px;&quot;&gt;Put X &quot;2&quot;&lt;/span&gt;" style="rounded=1;whiteSpace=wrap;html=1;fillColor=none;" vertex="1" parent="1">
          <mxGeometry x="314" y="160" width="90" height="25" as="geometry" />
        </mxCell>
        <mxCell id="yosqzPpUmF-Rqvi0anPo-4" value="&lt;span style=&quot;font-size: 20px;&quot;&gt;Put X &quot;3&quot;&lt;/span&gt;" style="rounded=1;whiteSpace=wrap;html=1;fillColor=none;" vertex="1" parent="1">
          <mxGeometry x="450" y="160" width="90" height="25" as="geometry" />
        </mxCell>
        <mxCell id="yosqzPpUmF-Rqvi0anPo-5" value="&lt;span style=&quot;font-size: 20px;&quot;&gt;Put X &quot;4&quot;&lt;/span&gt;" style="rounded=1;whiteSpace=wrap;html=1;fillColor=none;" vertex="1" parent="1">
          <mxGeometry x="600" y="160" width="90" height="25" as="geometry" />
        </mxCell>
        <mxCell id="yosqzPpUmF-Rqvi0anPo-7" value="&lt;span style=&quot;font-size: 20px;&quot;&gt;Get &quot;X&quot;&lt;/span&gt;" style="rounded=1;whiteSpace=wrap;html=1;fillColor=none;" vertex="1" parent="1">
          <mxGeometry x="270" y="240" width="300" height="25" as="geometry" />
        </mxCell>
        <mxCell id="CaDgp8TgmdfpTqCjU7Kz-1" value="&lt;font style=&quot;font-size: 20px;&quot;&gt;time&lt;/font&gt;" style="text;html=1;align=center;verticalAlign=middle;whiteSpace=wrap;rounded=0;" vertex="1" parent="1">
          <mxGeometry x="720" y="330" width="60" height="30" as="geometry" />
        </mxCell>
        <mxCell id="voQvA8kUMARiqqouBhaL-1" value="" style="shape=sumEllipse;perimeter=ellipsePerimeter;whiteSpace=wrap;html=1;backgroundOutline=1;" vertex="1" parent="1">
          <mxGeometry x="100" y="242.5" width="20" height="20" as="geometry" />
        </mxCell>
        <mxCell id="voQvA8kUMARiqqouBhaL-2" value="" style="shape=sumEllipse;perimeter=ellipsePerimeter;whiteSpace=wrap;html=1;backgroundOutline=1;" vertex="1" parent="1">
          <mxGeometry x="100" y="162.5" width="20" height="20" as="geometry" />
        </mxCell>
      </root>
    </mxGraphModel>
  </diagram>
</mxfile>
